<svg xmlns="http://www.w3.org/2000/svg" xmlns:xlink="http://www.w3.org/1999/xlink" viewBox="0,0,256,256" width="24px" height="24px" fill-rule="nonzero"><g fill-opacity="0.18039" fill="#d1d1d1" fill-rule="nonzero" stroke="none" stroke-width="1" stroke-linecap="butt" stroke-linejoin="miter" stroke-miterlimit="10" stroke-dasharray="" stroke-dashoffset="0" font-family="none" font-weight="none" font-size="none" text-anchor="none" style="mix-blend-mode: normal"><path d="M0,256v-256h256v256z" id="bgRectangle"></path></g><g fill="none" fill-rule="nonzero" stroke="#000000" stroke-width="10.66667" stroke-linecap="butt" stroke-linejoin="miter" stroke-miterlimit="10" stroke-dasharray="" stroke-dashoffset="0" font-family="none" font-weight="none" font-size="none" text-anchor="none" style="mix-blend-mode: normal"><path d="M67.40828,249.18343c-33.46388,0 -60.59172,-27.12784 -60.59172,-60.59172v-121.18343c0,-33.46388 27.12784,-60.59172 60.59172,-60.59172h121.18343c33.46388,0 60.59172,27.12784 60.59172,60.59172v121.18343c0,33.46388 -27.12784,60.59172 -60.59172,60.59172z" id="shape"></path></g><g fill="#000000" fill-rule="nonzero" stroke="none" stroke-width="1" stroke-linecap="butt" stroke-linejoin="miter" stroke-miterlimit="10" stroke-dasharray="" stroke-dashoffset="0" font-family="none" font-weight="none" font-size="none" text-anchor="none" style="mix-blend-mode: normal"><g transform="scale(10.66667,10.66667)"><path d="M4.70703,3.29297l-1.41406,1.41406l7.29297,7.29297l-7.29297,7.29297l1.41406,1.41406l7.29297,-7.29297l7.29297,7.29297l1.41406,-1.41406l-7.29297,-7.29297l7.29297,-7.29297l-1.41406,-1.41406l-7.29297,7.29297z"></path></g></g></svg>